# xmcd
#
# Track frame offsets: 
#        182
#        10587
#        21702
#        33532
#        43565
#        54795
#        69770
#        79010
#        90765
#        101700
#        119682
#        130765
#        151977
#        164795
#
# Disc length: 2338 seconds
#
# Revision: 1
# Processed by: cddbd v1.5.2PL0 Copyright (c) Steve Scherf et al.
# Submitted via: ExactAudioCopy v0.95b4
#
DISCID=a909200e
DTITLE=Various Artist - My Guitar Wants To Kill Your Mama
DYEAR=1993
DGENRE=Blues
TTITLE0=Sly Williams - Boot Hill
TTITLE1=Sly Williams - I Believe In A Woman
TTITLE2=Lafayette Thomas - Weekly Blues
TTITLE3=Lafayette Thomas - The Thing
TTITLE4=Mojo Watson - You Know You Don't Want Me
TTITLE5=The Masked Marvel's Buddy - Screamin' And Hollerin' The Blues 
TTITLE5=No. 2
TTITLE6=Earl Hooker - Yes, Yes
TTITLE7=Earl Hooker - Do The Chicken
TTITLE8=George Smith - All Last Night
TTITLE9=Guitar Tommy Moore - You Car Machine
TTITLE10=Guitar Tommy Moore - I Ain't Botherin' Nobody
TTITLE11=Calvin Leavy - Cummins Prison
TTITLE12=Mojo Watson - I Kept On Trying
TTITLE13=Mojo Watson-Look-A-There
EXTD=YEAR: 1993 ID3G: 0
EXTT0=
EXTT1=
EXTT2=
EXTT3=
EXTT4=
EXTT5=
EXTT6=
EXTT7=
EXTT8=
EXTT9=
EXTT10=
EXTT11=
EXTT12=
EXTT13=
PLAYORDER=
